<svg xmlns="http://www.w3.org/2000/svg" xmlns:xlink="http://www.w3.org/1999/xlink" contentStyleType="text/css" data-diagram-type="CLASS" height="951px" preserveAspectRatio="none" style="width:1604px;height:951px;background:#FFFFFF;" version="1.1" viewBox="0 0 1604 951" width="1604px" zoomAndPan="magnify"><defs/><g><!--class exercise--><g class="entity" data-entity="exercise" data-source-line="6" data-uid="ent0002" id="entity_exercise"><rect fill="#FFFFFF" height="76.5938" rx="2.5" ry="2.5" style="stroke:#000000;stroke-width:1;" width="152.041" x="255.36" y="246.38"/><ellipse cx="298.2496" cy="260.38" fill="#FFFFFF" rx="9" ry="9" style="stroke:#000000;stroke-width:1;"/><path d="M301.2184,266.0206 Q300.6403,266.3175 299.9996,266.4581 Q299.359,266.6144 298.6559,266.6144 Q296.1559,266.6144 294.8278,264.9738 Q293.5153,263.3175 293.5153,260.1925 Q293.5153,257.0675 294.8278,255.4113 Q296.1559,253.755 298.6559,253.755 Q299.359,253.755 299.9996,253.9113 Q300.6559,254.0675 301.2184,254.3644 L301.2184,257.0831 Q300.5934,256.505 299.9996,256.2394 Q299.4059,255.9581 298.7809,255.9581 Q297.4371,255.9581 296.7496,257.0363 Q296.0621,258.0988 296.0621,260.1925 Q296.0621,262.2863 296.7496,263.3644 Q297.4371,264.4269 298.7809,264.4269 Q299.4059,264.4269 299.9996,264.1613 Q300.5934,263.88 301.2184,263.3019 L301.2184,266.0206 Z " fill="#000000"/><text fill="#000000" font-family="Verdana" font-size="14" lengthAdjust="spacing" textLength="58.7617" x="315.7496" y="265.2267">exercise</text><line style="stroke:#000000;stroke-width:1;" x1="256.36" x2="406.401" y1="274.38" y2="274.38"/><text fill="#000000" font-family="Verdana" font-size="14" lengthAdjust="spacing" textLength="70.2119" x="261.36" y="291.3751">uuid: uuid</text><line style="stroke:#000000;stroke-width:1;" x1="256.36" x2="406.401" y1="298.6769" y2="298.6769"/><text fill="#000000" font-family="Verdana" font-size="14" lengthAdjust="spacing" textLength="140.041" x="261.36" y="315.672">name: varchar(255)</text></g><!--class exercise_target_muscle--><g class="entity" data-entity="exercise_target_muscle" data-source-line="10" data-uid="ent0003" id="entity_exercise_target_muscle"><rect fill="#FFFFFF" height="76.5938" rx="2.5" ry="2.5" style="stroke:#000000;stroke-width:1;" width="193.5801" x="125.59" y="44.59"/><ellipse cx="138.59" cy="58.59" fill="#FFFFFF" rx="9" ry="9" style="stroke:#000000;stroke-width:1;"/><path d="M141.5588,64.2306 Q140.9806,64.5275 140.34,64.6681 Q139.6994,64.8244 138.9963,64.8244 Q136.4963,64.8244 135.1681,63.1838 Q133.8556,61.5275 133.8556,58.4025 Q133.8556,55.2775 135.1681,53.6213 Q136.4963,51.965 138.9963,51.965 Q139.6994,51.965 140.34,52.1213 Q140.9963,52.2775 141.5588,52.5744 L141.5588,55.2931 Q140.9338,54.715 140.34,54.4494 Q139.7463,54.1681 139.1213,54.1681 Q137.7775,54.1681 137.09,55.2463 Q136.4025,56.3088 136.4025,58.4025 Q136.4025,60.4963 137.09,61.5744 Q137.7775,62.6369 139.1213,62.6369 Q139.7463,62.6369 140.34,62.3713 Q140.9338,62.09 141.5588,61.5119 L141.5588,64.2306 Z " fill="#000000"/><text fill="#000000" font-family="Verdana" font-size="14" lengthAdjust="spacing" textLength="165.5801" x="150.59" y="63.4367">exercise_target_muscle</text><line style="stroke:#000000;stroke-width:1;" x1="126.59" x2="318.1701" y1="72.59" y2="72.59"/><text fill="#000000" font-family="Verdana" font-size="14" lengthAdjust="spacing" textLength="135.9736" x="131.59" y="89.5851">exercise_uuid: uuid</text><text fill="#000000" font-family="Verdana" font-size="14" lengthAdjust="spacing" textLength="177.0303" x="131.59" y="105.882">target_muscle_uuid: uuid</text><line style="stroke:#000000;stroke-width:1;" x1="126.59" x2="318.1701" y1="113.1838" y2="113.1838"/></g><!--class hall--><g class="entity" data-entity="hall" data-source-line="14" data-uid="ent0004" id="entity_hall"><rect fill="#FFFFFF" height="109.1875" rx="2.5" ry="2.5" style="stroke:#000000;stroke-width:1;" width="222.4102" x="516.18" y="456.31"/><ellipse cx="611.0194" cy="470.31" fill="#FFFFFF" rx="9" ry="9" style="stroke:#000000;stroke-width:1;"/><path d="M613.9881,475.9506 Q613.41,476.2475 612.7694,476.3881 Q612.1287,476.5444 611.4256,476.5444 Q608.9256,476.5444 607.5975,474.9038 Q606.285,473.2475 606.285,470.1225 Q606.285,466.9975 607.5975,465.3413 Q608.9256,463.685 611.4256,463.685 Q612.1287,463.685 612.7694,463.8413 Q613.4256,463.9975 613.9881,464.2944 L613.9881,467.0131 Q613.3631,466.435 612.7694,466.1694 Q612.1756,465.8881 611.5506,465.8881 Q610.2069,465.8881 609.5194,466.9663 Q608.8319,468.0288 608.8319,470.1225 Q608.8319,472.2163 609.5194,473.2944 Q610.2069,474.3569 611.5506,474.3569 Q612.1756,474.3569 612.7694,474.0913 Q613.3631,473.81 613.9881,473.2319 L613.9881,475.9506 Z " fill="#000000"/><text fill="#000000" font-family="Verdana" font-size="14" lengthAdjust="spacing" textLength="25.2314" x="628.5194" y="475.1567">hall</text><line style="stroke:#000000;stroke-width:1;" x1="517.18" x2="737.5902" y1="484.31" y2="484.31"/><text fill="#000000" font-family="Verdana" font-size="14" lengthAdjust="spacing" textLength="140.7178" x="522.18" y="501.3051">hall_type_uuid: uuid</text><text fill="#000000" font-family="Verdana" font-size="14" lengthAdjust="spacing" textLength="70.2119" x="522.18" y="517.602">uuid: uuid</text><line style="stroke:#000000;stroke-width:1;" x1="517.18" x2="737.5902" y1="524.9038" y2="524.9038"/><text fill="#000000" font-family="Verdana" font-size="14" lengthAdjust="spacing" textLength="210.4102" x="522.18" y="541.8989">hall_description: varchar(255)</text><text fill="#000000" font-family="Verdana" font-size="14" lengthAdjust="spacing" textLength="172.2725" x="522.18" y="558.1957">hall_name: varchar(255)</text></g><!--class hall_type--><g class="entity" data-entity="hall_type" data-source-line="20" data-uid="ent0005" id="entity_hall_type"><rect fill="#FFFFFF" height="76.5938" rx="2.5" ry="2.5" style="stroke:#000000;stroke-width:1;" width="152.041" x="551.36" y="682.53"/><ellipse cx="591.8776" cy="696.53" fill="#FFFFFF" rx="9" ry="9" style="stroke:#000000;stroke-width:1;"/><path d="M594.8463,702.1706 Q594.2682,702.4675 593.6276,702.6081 Q592.987,702.7644 592.2838,702.7644 Q589.7838,702.7644 588.4557,701.1238 Q587.1432,699.4675 587.1432,696.3425 Q587.1432,693.2175 588.4557,691.5613 Q589.7838,689.905 592.2838,689.905 Q592.987,689.905 593.6276,690.0613 Q594.2838,690.2175 594.8463,690.5144 L594.8463,693.2331 Q594.2213,692.655 593.6276,692.3894 Q593.0338,692.1081 592.4088,692.1081 Q591.0651,692.1081 590.3776,693.1863 Q589.6901,694.2488 589.6901,696.3425 Q589.6901,698.4363 590.3776,699.5144 Q591.0651,700.5769 592.4088,700.5769 Q593.0338,700.5769 593.6276,700.3113 Q594.2213,700.03 594.8463,699.4519 L594.8463,702.1706 Z " fill="#000000"/><text fill="#000000" font-family="Verdana" font-size="14" lengthAdjust="spacing" textLength="63.5059" x="609.3776" y="701.3767">hall_type</text><line style="stroke:#000000;stroke-width:1;" x1="552.36" x2="702.401" y1="710.53" y2="710.53"/><text fill="#000000" font-family="Verdana" font-size="14" lengthAdjust="spacing" textLength="70.2119" x="557.36" y="727.5251">uuid: uuid</text><line style="stroke:#000000;stroke-width:1;" x1="552.36" x2="702.401" y1="734.8269" y2="734.8269"/><text fill="#000000" font-family="Verdana" font-size="14" lengthAdjust="spacing" textLength="140.041" x="557.36" y="751.822">name: varchar(255)</text></g><!--class maintenance_task--><g class="entity" data-entity="maintenance_task" data-source-line="24" data-uid="ent0006" id="entity_maintenance_task"><rect fill="#FFFFFF" height="141.7813" rx="2.5" ry="2.5" style="stroke:#000000;stroke-width:1;" width="251.292" x="667.74" y="213.78"/><ellipse cx="725.5422" cy="227.78" fill="#FFFFFF" rx="9" ry="9" style="stroke:#000000;stroke-width:1;"/><path d="M728.511,233.4206 Q727.9329,233.7175 727.2922,233.8581 Q726.6516,234.0144 725.9485,234.0144 Q723.4485,234.0144 722.1204,232.3737 Q720.8079,230.7175 720.8079,227.5925 Q720.8079,224.4675 722.1204,222.8112 Q723.4485,221.155 725.9485,221.155 Q726.6516,221.155 727.2922,221.3112 Q727.9485,221.4675 728.511,221.7644 L728.511,224.4831 Q727.886,223.905 727.2922,223.6394 Q726.6985,223.3581 726.0735,223.3581 Q724.7297,223.3581 724.0422,224.4362 Q723.3547,225.4987 723.3547,227.5925 Q723.3547,229.6862 724.0422,230.7644 Q724.7297,231.8269 726.0735,231.8269 Q726.6985,231.8269 727.2922,231.5612 Q727.886,231.28 728.511,230.7019 L728.511,233.4206 Z " fill="#000000"/><text fill="#000000" font-family="Verdana" font-size="14" lengthAdjust="spacing" textLength="128.1875" x="743.0422" y="232.6267">maintenance_task</text><line style="stroke:#000000;stroke-width:1;" x1="668.74" x2="918.032" y1="241.78" y2="241.78"/><text fill="#000000" font-family="Verdana" font-size="14" lengthAdjust="spacing" textLength="153.3916" x="673.74" y="258.7751">maintainer_uuid: uuid</text><text fill="#000000" font-family="Verdana" font-size="14" lengthAdjust="spacing" textLength="201.1611" x="673.74" y="275.072">maintenance_hall_uuid: uuid</text><text fill="#000000" font-family="Verdana" font-size="14" lengthAdjust="spacing" textLength="70.2119" x="673.74" y="291.3689">uuid: uuid</text><line style="stroke:#000000;stroke-width:1;" x1="668.74" x2="918.032" y1="298.6706" y2="298.6706"/><text fill="#000000" font-family="Verdana" font-size="14" lengthAdjust="spacing" textLength="233.0576" x="673.74" y="315.6657">planned_end_date: timestamp(6)</text><text fill="#000000" font-family="Verdana" font-size="14" lengthAdjust="spacing" textLength="239.292" x="673.74" y="331.9626">planned_start_date: timestamp(6)</text><text fill="#000000" font-family="Verdana" font-size="14" lengthAdjust="spacing" textLength="178.1787" x="673.74" y="348.2595">description: varchar(255)</text></g><!--class membership--><g class="entity" data-entity="membership" data-source-line="32" data-uid="ent0007" id="entity_membership"><rect fill="#FFFFFF" height="109.1875" rx="2.5" ry="2.5" style="stroke:#000000;stroke-width:1;" width="215.5742" x="864.6" y="666.24"/><ellipse cx="924.5932" cy="680.24" fill="#FFFFFF" rx="9" ry="9" style="stroke:#000000;stroke-width:1;"/><path d="M927.5619,685.8806 Q926.9838,686.1775 926.3432,686.3181 Q925.7025,686.4744 924.9994,686.4744 Q922.4994,686.4744 921.1713,684.8338 Q919.8588,683.1775 919.8588,680.0525 Q919.8588,676.9275 921.1713,675.2713 Q922.4994,673.615 924.9994,673.615 Q925.7025,673.615 926.3432,673.7713 Q926.9994,673.9275 927.5619,674.2244 L927.5619,676.9431 Q926.9369,676.365 926.3432,676.0994 Q925.7494,675.8181 925.1244,675.8181 Q923.7807,675.8181 923.0932,676.8963 Q922.4057,677.9588 922.4057,680.0525 Q922.4057,682.1463 923.0932,683.2244 Q923.7807,684.2869 925.1244,684.2869 Q925.7494,684.2869 926.3432,684.0213 Q926.9369,683.74 927.5619,683.1619 L927.5619,685.8806 Z " fill="#000000"/><text fill="#000000" font-family="Verdana" font-size="14" lengthAdjust="spacing" textLength="88.0879" x="942.0932" y="685.0867">membership</text><line style="stroke:#000000;stroke-width:1;" x1="865.6" x2="1079.1742" y1="694.24" y2="694.24"/><text fill="#000000" font-family="Verdana" font-size="14" lengthAdjust="spacing" textLength="203.5742" x="870.6" y="711.2351">membership_type_uuid: uuid</text><text fill="#000000" font-family="Verdana" font-size="14" lengthAdjust="spacing" textLength="70.2119" x="870.6" y="727.532">uuid: uuid</text><line style="stroke:#000000;stroke-width:1;" x1="865.6" x2="1079.1742" y1="734.8338" y2="734.8338"/><text fill="#000000" font-family="Verdana" font-size="14" lengthAdjust="spacing" textLength="177.9326" x="870.6" y="751.8289">valid_from: timestamp(6)</text><text fill="#000000" font-family="Verdana" font-size="14" lengthAdjust="spacing" textLength="176.0596" x="870.6" y="768.1257">valid_until: timestamp(6)</text></g><!--class membership_type--><g class="entity" data-entity="membership_type" data-source-line="38" data-uid="ent0008" id="entity_membership_type"><rect fill="#FFFFFF" height="109.1875" rx="2.5" ry="2.5" style="stroke:#000000;stroke-width:1;" width="156.0742" x="894.35" y="835.42"/><ellipse cx="908.1204" cy="849.42" fill="#FFFFFF" rx="9" ry="9" style="stroke:#000000;stroke-width:1;"/><path d="M911.0891,855.0606 Q910.511,855.3575 909.8704,855.4981 Q909.2297,855.6544 908.5266,855.6544 Q906.0266,855.6544 904.6985,854.0138 Q903.386,852.3575 903.386,849.2325 Q903.386,846.1075 904.6985,844.4513 Q906.0266,842.795 908.5266,842.795 Q909.2297,842.795 909.8704,842.9513 Q910.5266,843.1075 911.0891,843.4044 L911.0891,846.1231 Q910.4641,845.545 909.8704,845.2794 Q909.2766,844.9981 908.6516,844.9981 Q907.3079,844.9981 906.6204,846.0763 Q905.9329,847.1388 905.9329,849.2325 Q905.9329,851.3263 906.6204,852.4044 Q907.3079,853.4669 908.6516,853.4669 Q909.2766,853.4669 909.8704,853.2013 Q910.4641,852.92 911.0891,852.3419 L911.0891,855.0606 Z " fill="#000000"/><text fill="#000000" font-family="Verdana" font-size="14" lengthAdjust="spacing" textLength="126.3623" x="920.2916" y="854.2667">membership_type</text><line style="stroke:#000000;stroke-width:1;" x1="895.35" x2="1049.4242" y1="863.42" y2="863.42"/><text fill="#000000" font-family="Verdana" font-size="14" lengthAdjust="spacing" textLength="70.2119" x="900.35" y="880.4151">uuid: uuid</text><line style="stroke:#000000;stroke-width:1;" x1="895.35" x2="1049.4242" y1="887.7169" y2="887.7169"/><text fill="#000000" font-family="Verdana" font-size="14" lengthAdjust="spacing" textLength="144.0742" x="900.35" y="904.712">currency: varchar(3)</text><text fill="#000000" font-family="Verdana" font-size="14" lengthAdjust="spacing" textLength="143.4453" x="900.35" y="921.0089">price: numeric(38,2)</text><text fill="#000000" font-family="Verdana" font-size="14" lengthAdjust="spacing" textLength="131.6123" x="900.35" y="937.3057">type: varchar(255)</text></g><!--class payment--><g class="entity" data-entity="payment" data-source-line="44" data-uid="ent0009" id="entity_payment"><rect fill="#FFFFFF" height="141.7813" rx="2.5" ry="2.5" style="stroke:#000000;stroke-width:1;" width="235.0088" x="1009.88" y="12"/><ellipse cx="1092.4523" cy="26" fill="#FFFFFF" rx="9" ry="9" style="stroke:#000000;stroke-width:1;"/><path d="M1095.421,31.6406 Q1094.8429,31.9375 1094.2023,32.0781 Q1093.5616,32.2344 1092.8585,32.2344 Q1090.3585,32.2344 1089.0304,30.5938 Q1087.7179,28.9375 1087.7179,25.8125 Q1087.7179,22.6875 1089.0304,21.0313 Q1090.3585,19.375 1092.8585,19.375 Q1093.5616,19.375 1094.2023,19.5313 Q1094.8585,19.6875 1095.421,19.9844 L1095.421,22.7031 Q1094.796,22.125 1094.2023,21.8594 Q1093.6085,21.5781 1092.9835,21.5781 Q1091.6398,21.5781 1090.9523,22.6563 Q1090.2648,23.7188 1090.2648,25.8125 Q1090.2648,27.9063 1090.9523,28.9844 Q1091.6398,30.0469 1092.9835,30.0469 Q1093.6085,30.0469 1094.2023,29.7813 Q1094.796,29.5 1095.421,28.9219 L1095.421,31.6406 Z " fill="#000000"/><text fill="#000000" font-family="Verdana" font-size="14" lengthAdjust="spacing" textLength="62.3643" x="1109.9523" y="30.8467">payment</text><line style="stroke:#000000;stroke-width:1;" x1="1010.88" x2="1243.8888" y1="40" y2="40"/><text fill="#000000" font-family="Verdana" font-size="14" lengthAdjust="spacing" textLength="143.8623" x="1015.88" y="56.9951">external_ref_id: uuid</text><text fill="#000000" font-family="Verdana" font-size="14" lengthAdjust="spacing" textLength="121.8301" x="1015.88" y="73.292">payment_id: uuid</text><line style="stroke:#000000;stroke-width:1;" x1="1010.88" x2="1243.8888" y1="80.5938" y2="80.5938"/><text fill="#000000" font-family="Verdana" font-size="14" lengthAdjust="spacing" textLength="144.0742" x="1015.88" y="97.5889">currency: varchar(3)</text><text fill="#000000" font-family="Verdana" font-size="14" lengthAdjust="spacing" textLength="143.4453" x="1015.88" y="113.8857">price: numeric(38,2)</text><text fill="#000000" font-family="Verdana" font-size="14" lengthAdjust="spacing" textLength="223.0088" x="1015.88" y="130.1826">external_ref_type: varchar(255)</text><text fill="#000000" font-family="Verdana" font-size="14" lengthAdjust="spacing" textLength="143.3564" x="1015.88" y="146.4795">status: varchar(255)</text></g><!--class target_muscle--><g class="entity" data-entity="target_muscle" data-source-line="52" data-uid="ent0010" id="entity_target_muscle"><rect fill="#FFFFFF" height="76.5938" rx="2.5" ry="2.5" style="stroke:#000000;stroke-width:1;" width="152.041" x="68.36" y="246.38"/><ellipse cx="92.2602" cy="260.38" fill="#FFFFFF" rx="9" ry="9" style="stroke:#000000;stroke-width:1;"/><path d="M95.2289,266.0206 Q94.6508,266.3175 94.0102,266.4581 Q93.3696,266.6144 92.6664,266.6144 Q90.1664,266.6144 88.8383,264.9738 Q87.5258,263.3175 87.5258,260.1925 Q87.5258,257.0675 88.8383,255.4113 Q90.1664,253.755 92.6664,253.755 Q93.3696,253.755 94.0102,253.9113 Q94.6664,254.0675 95.2289,254.3644 L95.2289,257.0831 Q94.6039,256.505 94.0102,256.2394 Q93.4164,255.9581 92.7914,255.9581 Q91.4477,255.9581 90.7602,257.0363 Q90.0727,258.0988 90.0727,260.1925 Q90.0727,262.2863 90.7602,263.3644 Q91.4477,264.4269 92.7914,264.4269 Q93.4164,264.4269 94.0102,264.1613 Q94.6039,263.88 95.2289,263.3019 L95.2289,266.0206 Z " fill="#000000"/><text fill="#000000" font-family="Verdana" font-size="14" lengthAdjust="spacing" textLength="99.8184" x="106.6825" y="265.2267">target_muscle</text><line style="stroke:#000000;stroke-width:1;" x1="69.36" x2="219.401" y1="274.38" y2="274.38"/><text fill="#000000" font-family="Verdana" font-size="14" lengthAdjust="spacing" textLength="70.2119" x="74.36" y="291.3751">uuid: uuid</text><line style="stroke:#000000;stroke-width:1;" x1="69.36" x2="219.401" y1="298.6769" y2="298.6769"/><text fill="#000000" font-family="Verdana" font-size="14" lengthAdjust="spacing" textLength="140.041" x="74.36" y="315.672">name: varchar(255)</text></g><!--class user_account_connection--><g class="entity" data-entity="user_account_connection" data-source-line="56" data-uid="ent0011" id="entity_user_account_connection"><rect fill="#FFFFFF" height="109.1875" rx="2.5" ry="2.5" style="stroke:#000000;stroke-width:1;" width="382.5488" x="1025.11" y="230.08"/><ellipse cx="1123.9108" cy="244.08" fill="#FFFFFF" rx="9" ry="9" style="stroke:#000000;stroke-width:1;"/><path d="M1126.8795,249.7206 Q1126.3014,250.0175 1125.6608,250.1581 Q1125.0202,250.3144 1124.317,250.3144 Q1121.817,250.3144 1120.4889,248.6738 Q1119.1764,247.0175 1119.1764,243.8925 Q1119.1764,240.7675 1120.4889,239.1113 Q1121.817,237.455 1124.317,237.455 Q1125.0202,237.455 1125.6608,237.6113 Q1126.317,237.7675 1126.8795,238.0644 L1126.8795,240.7831 Q1126.2545,240.205 1125.6608,239.9394 Q1125.067,239.6581 1124.442,239.6581 Q1123.0983,239.6581 1122.4108,240.7363 Q1121.7233,241.7988 1121.7233,243.8925 Q1121.7233,245.9863 1122.4108,247.0644 Q1123.0983,248.1269 1124.442,248.1269 Q1125.067,248.1269 1125.6608,247.8613 Q1126.2545,247.58 1126.8795,247.0019 L1126.8795,249.7206 Z " fill="#000000"/><text fill="#000000" font-family="Verdana" font-size="14" lengthAdjust="spacing" textLength="177.4473" x="1141.4108" y="248.9267">user_account_connection</text><line style="stroke:#000000;stroke-width:1;" x1="1026.11" x2="1406.6588" y1="258.08" y2="258.08"/><text fill="#000000" font-family="Verdana" font-size="14" lengthAdjust="spacing" textLength="107.748" x="1031.11" y="275.0751">user_uuid: uuid</text><text fill="#000000" font-family="Verdana" font-size="14" lengthAdjust="spacing" textLength="70.2119" x="1031.11" y="291.372">uuid: uuid</text><line style="stroke:#000000;stroke-width:1;" x1="1026.11" x2="1406.6588" y1="298.6738" y2="298.6738"/><text fill="#000000" font-family="Verdana" font-size="14" lengthAdjust="spacing" textLength="370.5488" x="1031.11" y="315.6689">external_authorization_provider_name: varchar(255)</text><text fill="#000000" font-family="Verdana" font-size="14" lengthAdjust="spacing" textLength="315.5195" x="1031.11" y="331.9657">external_authorization_user_id: varchar(255)</text></g><!--class user_role--><g class="entity" data-entity="user_role" data-source-line="62" data-uid="ent0012" id="entity_user_role"><rect fill="#FFFFFF" height="76.5938" rx="2.5" ry="2.5" style="stroke:#000000;stroke-width:1;" width="185.8652" x="1411.45" y="472.6"/><ellipse cx="1468.4524" cy="486.6" fill="#FFFFFF" rx="9" ry="9" style="stroke:#000000;stroke-width:1;"/><path d="M1471.4212,492.2406 Q1470.8431,492.5375 1470.2024,492.6781 Q1469.5618,492.8344 1468.8587,492.8344 Q1466.3587,492.8344 1465.0306,491.1938 Q1463.7181,489.5375 1463.7181,486.4125 Q1463.7181,483.2875 1465.0306,481.6313 Q1466.3587,479.975 1468.8587,479.975 Q1469.5618,479.975 1470.2024,480.1313 Q1470.8587,480.2875 1471.4212,480.5844 L1471.4212,483.3031 Q1470.7962,482.725 1470.2024,482.4594 Q1469.6087,482.1781 1468.9837,482.1781 Q1467.6399,482.1781 1466.9524,483.2563 Q1466.2649,484.3188 1466.2649,486.4125 Q1466.2649,488.5063 1466.9524,489.5844 Q1467.6399,490.6469 1468.9837,490.6469 Q1469.6087,490.6469 1470.2024,490.3813 Q1470.7962,490.1 1471.4212,489.5219 L1471.4212,492.2406 Z " fill="#000000"/><text fill="#000000" font-family="Verdana" font-size="14" lengthAdjust="spacing" textLength="64.3604" x="1485.9524" y="491.4467">user_role</text><line style="stroke:#000000;stroke-width:1;" x1="1412.45" x2="1596.3152" y1="500.6" y2="500.6"/><text fill="#000000" font-family="Verdana" font-size="14" lengthAdjust="spacing" textLength="70.2119" x="1417.45" y="517.5951">uuid: uuid</text><line style="stroke:#000000;stroke-width:1;" x1="1412.45" x2="1596.3152" y1="524.8969" y2="524.8969"/><text fill="#000000" font-family="Verdana" font-size="14" lengthAdjust="spacing" textLength="173.8652" x="1417.45" y="541.892">role_name: varchar(255)</text></g><!--class users--><g class="entity" data-entity="users" data-source-line="66" data-uid="ent0013" id="entity_users"><rect fill="#FFFFFF" height="190.6719" rx="2.5" ry="2.5" style="stroke:#000000;stroke-width:1;" width="217.7891" x="863.49" y="415.56"/><ellipse cx="949.7195" cy="429.56" fill="#FFFFFF" rx="9" ry="9" style="stroke:#000000;stroke-width:1;"/><path d="M952.6882,435.2006 Q952.1101,435.4975 951.4695,435.6381 Q950.8289,435.7944 950.1257,435.7944 Q947.6257,435.7944 946.2976,434.1538 Q944.9851,432.4975 944.9851,429.3725 Q944.9851,426.2475 946.2976,424.5913 Q947.6257,422.935 950.1257,422.935 Q950.8289,422.935 951.4695,423.0913 Q952.1257,423.2475 952.6882,423.5444 L952.6882,426.2631 Q952.0632,425.685 951.4695,425.4194 Q950.8757,425.1381 950.2507,425.1381 Q948.907,425.1381 948.2195,426.2163 Q947.532,427.2788 947.532,429.3725 Q947.532,431.4663 948.2195,432.5444 Q948.907,433.6069 950.2507,433.6069 Q950.8757,433.6069 951.4695,433.3413 Q952.0632,433.06 952.6882,432.4819 L952.6882,435.2006 Z " fill="#000000"/><text fill="#000000" font-family="Verdana" font-size="14" lengthAdjust="spacing" textLength="37.8301" x="967.2195" y="434.4067">users</text><line style="stroke:#000000;stroke-width:1;" x1="864.49" x2="1080.2791" y1="443.56" y2="443.56"/><text fill="#000000" font-family="Verdana" font-size="14" lengthAdjust="spacing" textLength="165.2998" x="869.49" y="460.5551">membership_uuid: uuid</text><text fill="#000000" font-family="Verdana" font-size="14" lengthAdjust="spacing" textLength="70.2119" x="869.49" y="476.852">uuid: uuid</text><line style="stroke:#000000;stroke-width:1;" x1="864.49" x2="1080.2791" y1="484.1538" y2="484.1538"/><text fill="#000000" font-family="Verdana" font-size="14" lengthAdjust="spacing" textLength="196.4717" x="869.49" y="501.1489">date_of_birth: timestamp(6)</text><text fill="#000000" font-family="Verdana" font-size="14" lengthAdjust="spacing" textLength="138.9473" x="869.49" y="517.4457">email: varchar(255)</text><text fill="#000000" font-family="Verdana" font-size="14" lengthAdjust="spacing" textLength="174.3984" x="869.49" y="533.7426">first_name: varchar(255)</text><text fill="#000000" font-family="Verdana" font-size="14" lengthAdjust="spacing" textLength="169.4629" x="869.49" y="550.0395">image_url: varchar(255)</text><text fill="#000000" font-family="Verdana" font-size="14" lengthAdjust="spacing" textLength="172.293" x="869.49" y="566.3364">last_name: varchar(255)</text><text fill="#000000" font-family="Verdana" font-size="14" lengthAdjust="spacing" textLength="205.7891" x="869.49" y="582.6332">phone_number: varchar(255)</text><text fill="#000000" font-family="Verdana" font-size="14" lengthAdjust="spacing" textLength="170.5771" x="869.49" y="598.9301">username: varchar(255)</text></g><!--class users_roles--><g class="entity" data-entity="users_roles" data-source-line="77" data-uid="ent0014" id="entity_users_roles"><rect fill="#FFFFFF" height="76.5938" rx="2.5" ry="2.5" style="stroke:#000000;stroke-width:1;" width="123.3301" x="1442.72" y="246.38"/><ellipse cx="1463.0918" cy="260.38" fill="#FFFFFF" rx="9" ry="9" style="stroke:#000000;stroke-width:1;"/><path d="M1466.0606,266.0206 Q1465.4825,266.3175 1464.8418,266.4581 Q1464.2012,266.6144 1463.4981,266.6144 Q1460.9981,266.6144 1459.67,264.9738 Q1458.3575,263.3175 1458.3575,260.1925 Q1458.3575,257.0675 1459.67,255.4113 Q1460.9981,253.755 1463.4981,253.755 Q1464.2012,253.755 1464.8418,253.9113 Q1465.4981,254.0675 1466.0606,254.3644 L1466.0606,257.0831 Q1465.4356,256.505 1464.8418,256.2394 Q1464.2481,255.9581 1463.6231,255.9581 Q1462.2793,255.9581 1461.5918,257.0363 Q1460.9043,258.0988 1460.9043,260.1925 Q1460.9043,262.2863 1461.5918,263.3644 Q1462.2793,264.4269 1463.6231,264.4269 Q1464.2481,264.4269 1464.8418,264.1613 Q1465.4356,263.88 1466.0606,263.3019 L1466.0606,266.0206 Z " fill="#000000"/><text fill="#000000" font-family="Verdana" font-size="14" lengthAdjust="spacing" textLength="78.9482" x="1476.73" y="265.2267">users_roles</text><line style="stroke:#000000;stroke-width:1;" x1="1443.72" x2="1565.0501" y1="274.38" y2="274.38"/><text fill="#000000" font-family="Verdana" font-size="14" lengthAdjust="spacing" textLength="111.3301" x="1448.72" y="291.3751">roles_uuid: uuid</text><text fill="#000000" font-family="Verdana" font-size="14" lengthAdjust="spacing" textLength="107.748" x="1448.72" y="307.672">user_uuid: uuid</text><line style="stroke:#000000;stroke-width:1;" x1="1443.72" x2="1565.0501" y1="314.9738" y2="314.9738"/></g><!--class workout_session--><g class="entity" data-entity="workout_session" data-source-line="81" data-uid="ent0015" id="entity_workout_session"><rect fill="#FFFFFF" height="141.7813" rx="2.5" ry="2.5" style="stroke:#000000;stroke-width:1;" width="190.1787" x="442.3" y="213.78"/><ellipse cx="476.247" cy="227.78" fill="#FFFFFF" rx="9" ry="9" style="stroke:#000000;stroke-width:1;"/><path d="M479.2157,233.4206 Q478.6376,233.7175 477.997,233.8581 Q477.3563,234.0144 476.6532,234.0144 Q474.1532,234.0144 472.8251,232.3737 Q471.5126,230.7175 471.5126,227.5925 Q471.5126,224.4675 472.8251,222.8112 Q474.1532,221.155 476.6532,221.155 Q477.3563,221.155 477.997,221.3112 Q478.6532,221.4675 479.2157,221.7644 L479.2157,224.4831 Q478.5907,223.905 477.997,223.6394 Q477.4032,223.3581 476.7782,223.3581 Q475.4345,223.3581 474.747,224.4362 Q474.0595,225.4987 474.0595,227.5925 Q474.0595,229.6862 474.747,230.7644 Q475.4345,231.8269 476.7782,231.8269 Q477.4032,231.8269 477.997,231.5612 Q478.5907,231.28 479.2157,230.7019 L479.2157,233.4206 Z " fill="#000000"/><text fill="#000000" font-family="Verdana" font-size="14" lengthAdjust="spacing" textLength="115.6299" x="492.9019" y="232.6267">workout_session</text><line style="stroke:#000000;stroke-width:1;" x1="443.3" x2="631.4787" y1="241.78" y2="241.78"/><text fill="#000000" font-family="Verdana" font-size="14" lengthAdjust="spacing" textLength="72.3037" x="448.3" y="258.7751">date: date</text><text fill="#000000" font-family="Verdana" font-size="14" lengthAdjust="spacing" textLength="118.624" x="448.3" y="275.072">coach_uuid: uuid</text><text fill="#000000" font-family="Verdana" font-size="14" lengthAdjust="spacing" textLength="102.4434" x="448.3" y="291.3689">hall_uuid: uuid</text><text fill="#000000" font-family="Verdana" font-size="14" lengthAdjust="spacing" textLength="70.2119" x="448.3" y="307.6657">uuid: uuid</text><line style="stroke:#000000;stroke-width:1;" x1="443.3" x2="631.4787" y1="314.9675" y2="314.9675"/><text fill="#000000" font-family="Verdana" font-size="14" lengthAdjust="spacing" textLength="178.1787" x="448.3" y="331.9626">description: varchar(255)</text><text fill="#000000" font-family="Verdana" font-size="14" lengthAdjust="spacing" textLength="127.709" x="448.3" y="348.2595">title: varchar(255)</text></g><!--class workout_session_attendants--><g class="entity" data-entity="workout_session_attendants" data-source-line="89" data-uid="ent0016" id="entity_workout_session_attendants"><rect fill="#FFFFFF" height="76.5938" rx="2.5" ry="2.5" style="stroke:#000000;stroke-width:1;" width="226.7959" x="747.99" y="44.59"/><ellipse cx="760.99" cy="58.59" fill="#FFFFFF" rx="9" ry="9" style="stroke:#000000;stroke-width:1;"/><path d="M763.9588,64.2306 Q763.3806,64.5275 762.74,64.6681 Q762.0994,64.8244 761.3963,64.8244 Q758.8963,64.8244 757.5681,63.1838 Q756.2556,61.5275 756.2556,58.4025 Q756.2556,55.2775 757.5681,53.6213 Q758.8963,51.965 761.3963,51.965 Q762.0994,51.965 762.74,52.1213 Q763.3963,52.2775 763.9588,52.5744 L763.9588,55.2931 Q763.3338,54.715 762.74,54.4494 Q762.1463,54.1681 761.5213,54.1681 Q760.1775,54.1681 759.49,55.2463 Q758.8025,56.3088 758.8025,58.4025 Q758.8025,60.4963 759.49,61.5744 Q760.1775,62.6369 761.5213,62.6369 Q762.1463,62.6369 762.74,62.3713 Q763.3338,62.09 763.9588,61.5119 L763.9588,64.2306 Z " fill="#000000"/><text fill="#000000" font-family="Verdana" font-size="14" lengthAdjust="spacing" textLength="198.7959" x="772.99" y="63.4367">workout_session_attendants</text><line style="stroke:#000000;stroke-width:1;" x1="748.99" x2="973.7859" y1="72.59" y2="72.59"/><text fill="#000000" font-family="Verdana" font-size="14" lengthAdjust="spacing" textLength="153.3779" x="753.99" y="89.5851">attendants_uuid: uuid</text><text fill="#000000" font-family="Verdana" font-size="14" lengthAdjust="spacing" textLength="192.8418" x="753.99" y="105.882">workout_session_uuid: uuid</text><line style="stroke:#000000;stroke-width:1;" x1="748.99" x2="973.7859" y1="113.1838" y2="113.1838"/></g><!--class workout_session_exercise--><g class="entity" data-entity="workout_session_exercise" data-source-line="93" data-uid="ent0017" id="entity_workout_session_exercise"><rect fill="#FFFFFF" height="141.7813" rx="2.5" ry="2.5" style="stroke:#000000;stroke-width:1;" width="209.3916" x="392.69" y="12"/><ellipse cx="405.69" cy="26" fill="#FFFFFF" rx="9" ry="9" style="stroke:#000000;stroke-width:1;"/><path d="M408.6588,31.6406 Q408.0806,31.9375 407.44,32.0781 Q406.7994,32.2344 406.0963,32.2344 Q403.5963,32.2344 402.2681,30.5938 Q400.9556,28.9375 400.9556,25.8125 Q400.9556,22.6875 402.2681,21.0313 Q403.5963,19.375 406.0963,19.375 Q406.7994,19.375 407.44,19.5313 Q408.0963,19.6875 408.6588,19.9844 L408.6588,22.7031 Q408.0338,22.125 407.44,21.8594 Q406.8463,21.5781 406.2213,21.5781 Q404.8775,21.5781 404.19,22.6563 Q403.5025,23.7188 403.5025,25.8125 Q403.5025,27.9063 404.19,28.9844 Q404.8775,30.0469 406.2213,30.0469 Q406.8463,30.0469 407.44,29.7813 Q408.0338,29.5 408.6588,28.9219 L408.6588,31.6406 Z " fill="#000000"/><text fill="#000000" font-family="Verdana" font-size="14" lengthAdjust="spacing" textLength="181.3916" x="417.69" y="30.8467">workout_session_exercise</text><line style="stroke:#000000;stroke-width:1;" x1="393.69" x2="601.0816" y1="40" y2="40"/><text fill="#000000" font-family="Verdana" font-size="14" lengthAdjust="spacing" textLength="162.627" x="398.69" y="56.9951">exercise_order: integer</text><text fill="#000000" font-family="Verdana" font-size="14" lengthAdjust="spacing" textLength="89.8379" x="398.69" y="73.292">reps: integer</text><text fill="#000000" font-family="Verdana" font-size="14" lengthAdjust="spacing" textLength="83.207" x="398.69" y="89.5889">weight: real</text><text fill="#000000" font-family="Verdana" font-size="14" lengthAdjust="spacing" textLength="135.9736" x="398.69" y="105.8857">exercise_uuid: uuid</text><text fill="#000000" font-family="Verdana" font-size="14" lengthAdjust="spacing" textLength="192.8418" x="398.69" y="122.1826">workout_session_uuid: uuid</text><text fill="#000000" font-family="Verdana" font-size="14" lengthAdjust="spacing" textLength="70.2119" x="398.69" y="138.4795">uuid: uuid</text><line style="stroke:#000000;stroke-width:1;" x1="393.69" x2="601.0816" y1="145.7813" y2="145.7813"/></g><!--link exercise_target_muscle to exercise--><g class="link" data-entity-1="exercise_target_muscle" data-entity-2="exercise" data-source-line="102" data-uid="lnk18" id="link_exercise_target_muscle_exercise"><path codeLine="102" d="M287.27,121.32 C287.27,157.11 287.27,192.19 287.27,228.04" fill="none" id="exercise_target_muscle-to-exercise" style="stroke:#595959;stroke-width:1;"/><polygon fill="none" points="287.27,246.04,293.27,228.04,281.27,228.04,287.27,246.04" style="stroke:#595959;stroke-width:1;"/><text fill="#000000" font-family="Verdana" font-size="13" lengthAdjust="spacing" textLength="122.1289" x="164.27" y="179.7469">exercise_uuid:uuid</text></g><!--link exercise_target_muscle to target_muscle--><g class="link" data-entity-1="exercise_target_muscle" data-entity-2="target_muscle" data-source-line="103" data-uid="lnk19" id="link_exercise_target_muscle_target_muscle"><path codeLine="103" d="M173,121.32 C173,157.11 173,192.19 173,228.04" fill="none" id="exercise_target_muscle-to-target_muscle" style="stroke:#595959;stroke-width:1;"/><polygon fill="none" points="173,246.04,179,228.04,167,228.04,173,246.04" style="stroke:#595959;stroke-width:1;"/><text fill="#000000" font-family="Verdana" font-size="13" lengthAdjust="spacing" textLength="160.2529" x="12" y="196.7469">target_muscle_uuid:uuid</text></g><!--link hall to hall_type--><g class="link" data-entity-1="hall" data-entity-2="hall_type" data-source-line="104" data-uid="lnk20" id="link_hall_hall_type"><path codeLine="104" d="M627.38,565.78 C627.38,602.35 627.38,631.51 627.38,664.17" fill="none" id="hall-to-hall_type" style="stroke:#595959;stroke-width:1;"/><polygon fill="none" points="627.38,682.17,633.38,664.17,621.38,664.17,627.38,682.17" style="stroke:#595959;stroke-width:1;"/><text fill="#000000" font-family="Verdana" font-size="13" lengthAdjust="spacing" textLength="126.5342" x="500.38" y="620.0369">hall_type_uuid:uuid</text></g><!--link maintenance_task to hall--><g class="link" data-entity-1="maintenance_task" data-entity-2="hall" data-source-line="105" data-uid="lnk21" id="link_maintenance_task_hall"><path codeLine="105" d="M703.16,355.94 C703.16,388.32 703.16,408.02 703.16,438.13" fill="none" id="maintenance_task-to-hall" style="stroke:#595959;stroke-width:1;"/><polygon fill="none" points="703.16,456.13,709.16,438.13,697.16,438.13,703.16,456.13" style="stroke:#595959;stroke-width:1;"/><text fill="#000000" font-family="Verdana" font-size="13" lengthAdjust="spacing" textLength="182.6602" x="520.16" y="402.1069">maintenance_hall_uuid:uuid</text></g><!--link maintenance_task to users--><g class="link" data-entity-1="maintenance_task" data-entity-2="users" data-source-line="106" data-uid="lnk22" id="link_maintenance_task_users"><path codeLine="106" d="M891.26,355.94 C891.26,374.72 891.26,377.29 891.26,397.13" fill="none" id="maintenance_task-to-users" style="stroke:#595959;stroke-width:1;"/><polygon fill="none" points="891.26,415.13,897.26,397.13,885.26,397.13,891.26,415.13" style="stroke:#595959;stroke-width:1;"/><text fill="#000000" font-family="Verdana" font-size="13" lengthAdjust="spacing" textLength="138.3027" x="752.26" y="381.6069">maintainer_uuid:uuid</text></g><!--link membership to membership_type--><g class="link" data-entity-1="membership" data-entity-2="membership_type" data-source-line="107" data-uid="lnk23" id="link_membership_membership_type"><path codeLine="107" d="M972.38,775.76 C972.38,794.77 972.38,798.06 972.38,817.07" fill="none" id="membership-to-membership_type" style="stroke:#595959;stroke-width:1;"/><polygon fill="none" points="972.38,835.07,978.38,817.07,966.38,817.07,972.38,835.07" style="stroke:#595959;stroke-width:1;"/><text fill="#000000" font-family="Verdana" font-size="13" lengthAdjust="spacing" textLength="184.9009" x="787.38" y="801.4869">membership_type_uuid:uuid</text></g><!--link user_account_connection to users--><g class="link" data-entity-1="user_account_connection" data-entity-2="users" data-source-line="108" data-uid="lnk24" id="link_user_account_connection_users"><path codeLine="108" d="M1053.19,339.72 C1053.19,362.48 1053.19,371.54 1053.19,397.35" fill="none" id="user_account_connection-to-users" style="stroke:#595959;stroke-width:1;"/><polygon fill="none" points="1053.19,415.35,1059.19,397.35,1047.19,397.35,1053.19,415.35" style="stroke:#595959;stroke-width:1;"/><text fill="#000000" font-family="Verdana" font-size="13" lengthAdjust="spacing" textLength="95.9194" x="957.19" y="373.6069">user_uuid:uuid</text></g><!--link users to membership--><g class="link" data-entity-1="users" data-entity-2="membership" data-source-line="109" data-uid="lnk25" id="link_users_membership"><path codeLine="109" d="M972.38,606.65 C972.38,626.98 972.38,629.77 972.38,647.95" fill="none" id="users-to-membership" style="stroke:#595959;stroke-width:1;"/><polygon fill="none" points="972.38,665.95,978.38,647.95,966.38,647.95,972.38,665.95" style="stroke:#595959;stroke-width:1;"/><text fill="#000000" font-family="Verdana" font-size="13" lengthAdjust="spacing" textLength="149.3604" x="822.38" y="632.3669">membership_uuid:uuid</text></g><!--link users_roles to user_role--><g class="link" data-entity-1="users_roles" data-entity-2="user_role" data-source-line="110" data-uid="lnk26" id="link_users_roles_user_role"><path codeLine="110" d="M1524.94,323.31 C1524.94,364.95 1524.94,412.84 1524.94,454.43" fill="none" id="users_roles-to-user_role" style="stroke:#595959;stroke-width:1;"/><polygon fill="none" points="1524.94,472.43,1530.94,454.43,1518.94,454.43,1524.94,472.43" style="stroke:#595959;stroke-width:1;"/><text fill="#000000" font-family="Verdana" font-size="13" lengthAdjust="spacing" textLength="99.2456" x="1424.94" y="393.9369">roles_uuid:uuid</text></g><!--link users_roles to users--><g class="link" data-entity-1="users_roles" data-entity-2="users" data-source-line="111" data-uid="lnk27" id="link_users_roles_users"><path codeLine="111" d="M1483.83,323.15 C1483.83,370.18 1483.83,443.61 1483.83,443.61 C1483.83,443.61 1249.68,443.61 1099.48,443.61" fill="none" id="users_roles-to-users" style="stroke:#595959;stroke-width:1;"/><polygon fill="none" points="1081.48,443.61,1099.48,449.61,1099.48,437.61,1081.48,443.61" style="stroke:#595959;stroke-width:1;"/><text fill="#000000" font-family="Verdana" font-size="13" lengthAdjust="spacing" textLength="95.9194" x="1246.88" y="439.6769">user_uuid:uuid</text></g><!--link workout_session to hall--><g class="link" data-entity-1="workout_session" data-entity-2="hall" data-source-line="112" data-uid="lnk28" id="link_workout_session_hall"><path codeLine="112" d="M554.94,355.94 C554.94,388.32 554.94,408.02 554.94,438.13" fill="none" id="workout_session-to-hall" style="stroke:#595959;stroke-width:1;"/><polygon fill="none" points="554.94,456.13,560.94,438.13,548.94,438.13,554.94,456.13" style="stroke:#595959;stroke-width:1;"/><text fill="#000000" font-family="Verdana" font-size="13" lengthAdjust="spacing" textLength="90.9937" x="463.94" y="419.1069">hall_uuid:uuid</text></g><!--link workout_session to users--><g class="link" data-entity-1="workout_session" data-entity-2="users" data-source-line="113" data-uid="lnk29" id="link_workout_session_users"><path codeLine="113" d="M593.71,355.72 C593.71,394.87 593.71,435.61 593.71,435.61 C593.71,435.61 733.26,435.61 845.11,435.61" fill="none" id="workout_session-to-users" style="stroke:#595959;stroke-width:1;"/><polygon fill="none" points="863.11,435.61,845.11,429.61,845.11,441.61,863.11,435.61" style="stroke:#595959;stroke-width:1;"/><text fill="#000000" font-family="Verdana" font-size="13" lengthAdjust="spacing" textLength="106.0186" x="581.47" y="431.6769">coach_uuid:uuid</text></g><!--link workout_session_attendants to users--><g class="link" data-entity-1="workout_session_attendants" data-entity-2="users" data-source-line="114" data-uid="lnk30" id="link_workout_session_attendants_users"><path codeLine="114" d="M946.91,121.63 C946.91,187.37 946.91,304.65 946.91,397.08" fill="none" id="workout_session_attendants-to-users" style="stroke:#595959;stroke-width:1;"/><polygon fill="none" points="946.91,415.08,952.91,397.08,940.91,397.08,946.91,415.08" style="stroke:#595959;stroke-width:1;"/><text fill="#000000" font-family="Verdana" font-size="13" lengthAdjust="spacing" textLength="138.29" x="877.91" y="281.4169">attendants_uuid:uuid</text></g><!--link workout_session_attendants to workout_session--><g class="link" data-entity-1="workout_session_attendants" data-entity-2="workout_session" data-source-line="115" data-uid="lnk31" id="link_workout_session_attendants_workout_session"><path codeLine="115" d="M747.55,82.61 C683.91,82.61 617.28,82.61 617.28,82.61 C617.28,82.61 617.28,137.26 617.28,195.43" fill="none" id="workout_session_attendants-to-workout_session" style="stroke:#595959;stroke-width:1;"/><polygon fill="none" points="617.28,213.43,623.28,195.43,611.28,195.43,617.28,213.43" style="stroke:#595959;stroke-width:1;"/><text fill="#000000" font-family="Verdana" font-size="13" lengthAdjust="spacing" textLength="174.9351" x="618.28" y="78.9569">workout_session_uuid:uuid</text></g><!--link workout_session_exercise to exercise--><g class="link" data-entity-1="workout_session_exercise" data-entity-2="exercise" data-source-line="116" data-uid="lnk32" id="link_workout_session_exercise_exercise"><path codeLine="116" d="M400.05,154.03 C400.05,185.01 400.05,202.09 400.05,228.1" fill="none" id="workout_session_exercise-to-exercise" style="stroke:#595959;stroke-width:1;"/><polygon fill="none" points="400.05,246.1,406.05,228.1,394.05,228.1,400.05,246.1" style="stroke:#595959;stroke-width:1;"/><text fill="#000000" font-family="Verdana" font-size="13" lengthAdjust="spacing" textLength="122.1289" x="277.05" y="213.1269">exercise_uuid:uuid</text></g><!--link workout_session_exercise to workout_session--><g class="link" data-entity-1="workout_session_exercise" data-entity-2="workout_session" data-source-line="117" data-uid="lnk33" id="link_workout_session_exercise_workout_session"><path codeLine="117" d="M522.19,154.03 C522.19,173.32 522.19,176.2 522.19,195.49" fill="none" id="workout_session_exercise-to-workout_session" style="stroke:#595959;stroke-width:1;"/><polygon fill="none" points="522.19,213.49,528.19,195.49,516.19,195.49,522.19,213.49" style="stroke:#595959;stroke-width:1;"/><text fill="#000000" font-family="Verdana" font-size="13" lengthAdjust="spacing" textLength="174.9351" x="347.19" y="179.8269">workout_session_uuid:uuid</text></g><!--SRC=[hLNRRjmW47ttLz3q9P6IbqIfslsLgaK4pwvH35Z3E9TM_VS2tgnjZ2tRhLUn763cd3F0cKzKWGRMr4APWcp3oB8dIsGrAnM296LDuPwLQGGApMfbWDuRO1QfiaKXQ-4SWpT0gHomtmLZp0WD1_OYK5O2h-yV7s_2QDkgyX3VnPyaZ9F04n3NhPFrESbbRX3dXqShUIPd9Ugwon2-UE2Qf8ZZ9JY9gWdgfbJZYjKgBZWRrMjVSG8ZZ0m5SCzTkDy8Ow3aO4fU2lAfI6bm97Hp_ULckCAF8SsiYRdz7s0YVWWQYO-d5ykIqm3w2T1LgkdOluXQbVo8LayvTNEj8LLd25yIvRPi4NbGUzaYWf7lFVU7hcIefA-IQJNuh-k7hxVtSJn4hjBPY7SDXlQXm1i16b5pX2CVoXfDvBdu6b7hfkDdGdp2D7ELLf_8rldp8gIqVfEujFwKnUlVPOcJussvy1UjDmDKlqHOpXkqBwhqg_F0Cr4nVyY-bYZQ3u7XYszIwRh0S7cuFV8dvTriyL0cmlqrggTWHuMEPeWeBKx-M6CcpBEQYsegQxoqDl38Y7EXa5janwAvlceklMZ99dy4lrfyjYrn1yvTJaHdFU4TRuKLiifPxGQ78KNrEZK98Ix8kref39t5zVyd-6dWYjpZxdPfJ1RBi2d1Jq-0iQBGkD70AwXJHGS_8Ug5fhR0ALLVpFJC-Dnz__puBVnkOpl_SVUpXsJJvy2kneJ2wsepGcRP027Ji3kOsAXddXnCtsPpGf9ctq5CEkmAY1b67YBVElSXTHwqY3JetcUCljUkAbZQ8HECNCFjWERQm3unlQNqsTs6VL-GFPQHOfozRWr6tqzo60EZt9z-VO5Ih_stKvkUrAtPbxaFJ3-RVkZBEzAdBhuFOq6onyYQRnvewAN_nskt8koLyXS0]--></g></svg>